{"glyphs":{":":{"x_min":0,"x_max":228,"ha":228,"o":"m 76 418 l 76 519 l 158 519 l 158 418 z m 76 0 l 76 100 l 158 100 l 158 0 z"},"$":{"x_min":0,"x_max":456,"ha":456,"o":"m 203 -103 l 203 -15 q 144 -6 110 18 q 77 42 54 87 q 32 133 28 199 l 101 215 q 110 136 138 100 q 166 63 203 59 l 203 339 q 155 350 108 384 q 77 406 59 447 q 41 487 41 541 q 41 596 61 641 q 82 686 115 709 q 148 733 203 740 l 203 782 l 246 782 l 246 740 q 291 734 322 714 q 353 693 374 656 q 395 619 402 563 l 328 550 q 315 648 246 666 l 246 412 q 295 397 309 390 q 341 375 365 350 q 389 325 403 288 q 417 250 417 204 q 417 108 367 49 q 318 -10 246 -14 l 246 -103 z m 203 667 q 162 659 137 626 q 112 594 112 544 q 112 457 203 423 z m 246 59 q 286 65 314 102 q 342 139 342 199 q 342 248 322 276 q 301 305 246 327 z"},"?":{"x_min":0,"x_max":456,"ha":456,"o":"m 188 176 l 187 203 q 187 273 211 321 q 228 354 281 412 q 317 450 328 474 q 339 499 339 527 q 339 581 305 618 q 271 656 227 656 q 181 656 150 621 q 118 586 109 511 l 35 521 q 45 625 96 677 q 146 728 226 728 q 306 728 360 673 q 413 618 413 533 q 413 486 396 447 q 378 408 325 350 q 280 302 269 274 q 258 246 257 176 z m 183 0 l 183 100 l 265 100 l 265 0 z"},"<":{"x_min":0,"x_max":479,"ha":479,"o":"m 44 313 l 44 395 l 433 595 l 433 508 l 125 354 l 433 198 l 433 110 z"},"'":{"x_min":0,"x_max":157,"ha":157,"o":"m 53 462 l 35 596 l 35 716 l 117 716 l 117 596 l 98 462 z"},"=":{"x_min":0,"x_max":479,"ha":479,"o":"m 433 421 l 45 421 l 45 503 l 433 503 z m 433 204 l 45 204 l 45 286 l 433 286 z"},"a":{"x_min":0,"x_max":456,"ha":456,"o":"m 330 64 q 294 26 255 7 q 216 -12 174 -12 q 107 -12 68 28 q 28 68 28 136 q 28 181 47 216 q 65 250 98 270 q 130 290 195 299 q 283 312 324 329 l 325 352 q 325 405 306 426 q 279 458 223 458 q 173 458 148 437 q 123 416 111 359 l 41 371 q 56 454 102 492 q 148 530 234 530 q 301 530 339 505 q 377 480 387 443 q 397 406 397 334 l 397 217 q 397 94 402 62 q 406 30 420 0 l 345 0 q 333 27 330 64 z m 324 260 q 285 241 207 227 q 161 219 143 209 q 125 199 115 181 q 105 163 105 139 q 105 102 128 79 q 151 57 191 57 q 230 57 261 77 q 293 97 309 131 q 324 164 324 228 z"},"L":{"x_min":0,"x_max":456,"ha":456,"o":"m 59 0 l 59 716 l 136 716 l 136 84 l 425 84 l 425 0 z"},"3":{"x_min":0,"x_max":456,"ha":456,"o":"m 33 189 l 105 201 q 128 60 219 60 q 269 60 305 102 q 341 144 341 210 q 341 272 308 311 q 274 349 226 349 q 206 349 175 339 l 184 416 l 195 415 q 248 415 281 448 q 314 480 314 535 q 314 585 287 616 q 259 646 219 646 q 177 646 149 615 q 120 583 112 518 l 41 533 q 54 625 102 672 q 150 719 218 719 q 289 719 339 666 q 389 613 389 533 q 389 484 367 447 q 346 409 308 388 q 343 378 366 355 q 389 333 403 295 q 417 258 417 211 q 417 113 359 50 q 301 -13 220 -13 q 145 -13 93 42 q 41 97 33 189 z"},";":{"x_min":0,"x_max":228,"ha":228,"o":"m 74 418 l 74 519 l 156 519 l 156 418 z m 74 0 l 74 100 l 156 100 l 156 0 q 156 -58 139 -91 q 122 -124 89 -142 l 69 -104 q 91 -92 103 -69 q 114 -46 115 0 z"},"J":{"x_min":0,"x_max":410,"ha":410,"o":"m 22 203 l 92 215 q 95 133 117 103 q 140 72 179 72 q 207 72 228 88 q 250 103 257 126 q 267 158 267 223 l 267 716 l 345 716 l 345 228 q 345 96 302 42 q 258 -12 180 -12 q 103 -12 65 37 q 22 92 22 203 z"},"V":{"x_min":0,"x_max":547,"ha":547,"o":"m 231 0 l 4 716 l 88 716 l 241 196 q 258 135 271 79 q 285 138 303 196 l 461 716 l 541 716 l 311 0 z"},"\"":{"x_min":0,"x_max":291,"ha":291,"o":"m 57 462 l 37 599 l 37 716 l 119 716 l 119 599 l 101 462 z m 189 462 l 170 599 l 170 716 l 252 716 l 252 599 l 233 462 z"},"7":{"x_min":0,"x_max":456,"ha":456,"o":"m 38 622 l 38 707 l 417 707 l 417 638 q 333 528 268 351 q 204 174 194 0 l 120 0 q 121 90 148 209 q 175 329 223 438 q 270 546 325 622 z"},"S":{"x_min":0,"x_max":547,"ha":547,"o":"m 37 230 l 110 238 q 116 179 137 146 q 158 113 196 93 q 235 73 283 73 q 353 73 391 107 q 429 141 429 195 q 429 227 415 250 q 401 274 373 289 q 345 304 252 332 q 169 356 134 381 q 99 406 79 444 q 60 482 60 531 q 60 618 116 673 q 172 728 267 728 q 333 728 382 702 q 431 676 458 628 q 485 580 487 514 l 412 507 q 406 577 370 611 q 334 645 270 645 q 204 645 169 615 q 134 585 134 539 q 134 495 160 471 q 185 447 274 423 q 361 399 396 381 q 450 354 477 309 q 504 265 504 203 q 504 141 476 91 q 447 40 397 14 q 348 -13 278 -13 q 169 -13 104 53 q 40 118 37 230 z"},"}":{"x_min":0,"x_max":274,"ha":274,"o":"m 250 299 l 250 219 q 222 218 203 202 q 184 185 176 153 q 167 120 167 30 q 167 -59 164 -87 q 158 -135 139 -167 q 125 -190 103 -200 q 80 -210 41 -210 l 18 -210 l 18 -134 l 31 -134 q 71 -134 85 -116 q 99 -98 99 -33 q 99 102 105 139 q 114 188 133 215 q 152 243 183 259 q 137 286 118 330 q 99 374 99 479 q 99 586 96 605 q 91 631 78 641 q 65 651 31 651 l 18 651 l 18 728 l 41 728 q 83 728 104 718 q 125 707 138 687 q 156 660 161 623 q 167 586 167 488 q 167 397 176 365 q 184 332 203 316 q 222 299 250 299 z"},"Z":{"x_min":0,"x_max":501,"ha":501,"o":"m 18 0 l 18 88 l 318 546 q 350 594 379 631 l 51 631 l 51 716 l 472 716 l 472 631 l 143 135 l 107 84 l 481 84 l 481 0 z"},"x":{"x_min":0,"x_max":410,"ha":410,"o":"m 6 0 l 161 270 l 18 519 l 107 519 l 173 397 q 191 363 203 339 q 221 372 235 396 l 307 519 l 393 519 l 246 274 l 404 0 l 315 0 l 228 161 l 205 205 l 93 0 z"},")":{"x_min":0,"x_max":273,"ha":273,"o":"m 82 -210 l 30 -210 q 149 24 149 259 q 149 335 137 411 q 125 487 105 550 q 84 613 30 728 l 82 728 q 224 497 224 260 q 224 124 181 1 q 139 -122 82 -210 z"},"&":{"x_min":0,"x_max":547,"ha":547,"o":"m 390 84 q 319 -12 222 -12 q 135 -12 85 53 q 36 119 36 198 q 36 330 175 411 q 137 465 123 500 q 109 535 109 568 q 109 636 152 682 q 195 728 255 728 q 312 728 352 685 q 392 642 392 575 q 392 473 281 401 l 386 237 q 403 279 414 337 l 489 317 q 470 225 437 163 q 477 99 528 53 l 480 -17 q 437 18 390 84 z m 244 458 q 289 490 303 515 q 318 540 318 573 q 318 611 298 633 q 279 656 251 656 q 224 656 203 634 q 183 612 183 577 q 183 543 211 503 z m 345 154 l 213 354 q 157 313 135 277 q 113 241 113 203 q 113 154 144 110 q 174 65 223 65 q 254 65 289 89 q 323 113 345 154 z"},"_":{"x_min":0,"x_max":456,"ha":456,"o":"m -6 -75 l 460 -75 l 460 -125 l -6 -125 z"},"v":{"x_min":0,"x_max":410,"ha":410,"o":"m 172 0 l 10 519 l 86 519 l 178 208 q 193 155 205 104 q 214 145 231 202 l 326 519 l 400 519 l 239 0 z"},"O":{"x_min":0,"x_max":638,"ha":638,"o":"m 42 349 q 42 532 122 630 q 203 729 323 729 q 400 729 464 685 q 528 641 566 557 q 603 473 603 357 q 603 198 531 98 q 451 -12 322 -12 q 192 -12 113 101 q 42 204 42 349 z m 122 347 q 122 215 180 142 q 238 69 322 69 q 407 69 465 143 q 523 216 523 359 q 523 452 493 524 q 470 580 424 614 q 378 647 323 647 q 235 647 178 574 q 122 500 122 347 z"},"(":{"x_min":0,"x_max":273,"ha":273,"o":"m 191 -210 q 138 -126 94 -3 q 49 120 49 260 q 49 497 191 728 l 243 728 q 188 613 168 550 q 147 487 135 411 q 123 335 123 259 q 123 24 243 -210 z"},"C":{"x_min":0,"x_max":592,"ha":592,"o":"m 480 251 l 558 227 q 532 106 468 47 q 403 -12 310 -12 q 229 -12 171 28 q 113 67 76 155 q 39 243 39 363 q 39 481 76 563 q 113 645 176 686 q 239 728 316 728 q 401 728 462 675 q 523 622 548 520 l 472 498 q 433 647 315 647 q 256 647 213 617 q 170 587 145 523 q 119 460 119 363 q 119 216 171 142 q 223 69 309 69 q 372 69 418 114 q 464 159 480 251 z"},"W":{"x_min":0,"x_max":774,"ha":774,"o":"m 167 0 l 11 716 l 91 716 l 180 247 q 194 174 205 100 l 231 232 l 343 716 l 437 716 l 521 354 q 552 221 567 100 q 578 170 596 256 l 688 716 l 766 716 l 605 0 l 530 0 l 406 545 l 388 629 q 379 583 371 545 l 246 0 z"},"A":{"x_min":0,"x_max":547,"ha":547,"o":"m -1 0 l 225 716 l 308 716 l 548 0 l 459 0 l 391 217 l 146 217 l 82 0 z m 168 294 l 367 294 l 306 492 q 278 583 265 641 q 253 572 233 504 z"},"f":{"x_min":0,"x_max":228,"ha":228,"o":"m 73 0 l 73 450 l 9 450 l 9 519 l 73 519 l 73 574 q 73 635 86 665 q 99 696 125 712 q 151 728 190 728 q 221 728 258 719 l 247 643 q 225 647 205 647 q 172 647 158 631 q 145 614 145 566 l 145 519 l 228 519 l 228 450 l 145 450 l 145 0 z"},"Q":{"x_min":0,"x_max":638,"ha":638,"o":"m 510 77 q 564 31 610 10 l 587 -56 q 522 -27 461 32 q 396 -12 317 -12 q 188 -12 109 101 q 37 202 37 357 q 37 474 76 559 q 114 644 177 686 q 240 729 318 729 q 396 729 460 685 q 523 641 561 557 q 599 474 599 359 q 599 270 575 198 q 552 125 510 77 z m 339 198 q 406 175 450 129 q 518 207 518 359 q 518 452 492 516 q 466 581 420 614 q 374 647 319 647 q 232 647 175 574 q 117 501 117 357 q 117 216 175 142 q 233 69 319 69 q 360 69 397 88 q 361 117 320 129 z"},"w":{"x_min":0,"x_max":592,"ha":592,"o":"m 131 0 l 1 519 l 76 519 l 143 219 l 168 108 l 190 215 l 258 519 l 332 519 l 396 218 l 417 119 l 441 219 l 514 519 l 584 519 l 451 0 l 376 0 l 309 311 l 292 399 l 207 0 z"},"-":{"x_min":0,"x_max":273,"ha":273,"o":"m 26 215 l 26 303 l 247 303 l 247 215 z"},"E":{"x_min":0,"x_max":547,"ha":547,"o":"m 65 0 l 65 716 l 489 716 l 489 631 l 143 631 l 143 412 l 467 412 l 467 328 l 143 328 l 143 84 l 503 84 l 503 0 z"},"s":{"x_min":0,"x_max":410,"ha":410,"o":"m 25 155 l 97 168 q 103 114 131 87 q 160 61 207 61 q 253 61 279 84 q 305 107 305 143 q 305 173 283 190 q 268 202 209 220 q 125 246 97 264 q 69 282 53 312 q 38 342 38 381 q 38 447 80 489 q 123 530 198 530 q 245 530 281 513 q 317 496 336 467 q 355 438 362 385 l 292 373 q 282 458 200 458 q 153 458 130 439 q 107 420 107 391 q 107 362 129 346 q 142 336 207 314 q 296 286 323 269 q 349 252 364 223 q 378 194 378 154 q 378 80 331 34 q 284 -12 203 -12 q 50 -12 25 155 z"},">":{"x_min":0,"x_max":479,"ha":479,"o":"m 433 313 l 44 110 l 44 198 l 352 354 l 44 508 l 44 595 l 433 395 z"},"l":{"x_min":0,"x_max":182,"ha":182,"o":"m 51 0 l 51 716 l 123 716 l 123 0 z"},"8":{"x_min":0,"x_max":456,"ha":456,"o":"m 144 388 q 100 408 78 444 q 56 480 56 535 q 56 616 104 667 q 152 719 225 719 q 298 719 346 667 q 395 614 395 532 q 395 480 374 444 q 352 408 309 388 q 362 367 390 320 q 419 273 419 204 q 419 108 364 48 q 308 -12 226 -12 q 143 -12 88 48 q 32 108 32 207 q 32 278 62 325 q 91 372 144 388 z m 130 537 q 130 484 158 453 q 186 422 226 422 q 266 422 293 453 q 321 483 321 532 q 321 583 293 615 q 264 646 225 646 q 186 646 158 615 q 130 584 130 537 z m 106 207 q 106 141 141 100 q 177 60 226 60 q 276 60 311 99 q 345 138 345 204 q 345 270 310 310 q 274 350 224 350 q 175 350 140 310 q 106 270 106 207 z"},"\\":{"x_min":0,"x_max":228,"ha":228,"o":"m 170 -12 l 0 728 l 58 728 l 228 -12 z"},"e":{"x_min":0,"x_max":456,"ha":456,"o":"m 344 167 l 418 156 q 399 73 351 31 q 302 -12 230 -12 q 140 -12 84 57 q 28 125 28 255 q 28 389 85 460 q 141 530 228 530 q 310 530 365 461 q 420 392 420 260 l 420 237 l 103 237 q 107 149 143 105 q 179 61 231 61 q 312 61 344 167 z m 107 309 l 344 309 q 339 376 315 410 q 281 458 227 458 q 179 458 145 418 q 110 377 107 309 z"},"b":{"x_min":0,"x_max":456,"ha":456,"o":"m 119 0 l 52 0 l 52 716 l 124 716 l 124 460 q 147 496 176 513 q 205 530 241 530 q 291 530 331 500 q 372 471 396 410 q 421 350 421 263 q 421 131 366 60 q 311 -12 237 -12 q 200 -12 170 8 q 141 27 119 65 z m 118 263 q 118 183 133 143 q 147 103 174 82 q 201 61 234 61 q 278 61 313 111 q 347 161 347 260 q 347 362 314 410 q 281 458 232 458 q 188 458 153 408 q 118 358 118 263 z"},"%":{"x_min":0,"x_max":729,"ha":729,"o":"m 46 544 q 46 633 82 681 q 117 728 169 728 q 223 728 260 681 q 297 633 297 539 q 297 447 260 398 q 223 350 170 350 q 118 350 82 398 q 46 446 46 544 z m 171 667 q 145 667 127 639 q 109 610 109 539 q 109 467 127 438 q 145 410 173 410 q 199 410 217 439 q 234 467 234 539 q 234 610 216 639 q 198 667 171 667 z m 171 -26 l 493 728 l 551 728 l 231 -26 z m 426 168 q 426 257 461 305 q 497 352 548 352 q 603 352 640 305 q 677 258 677 164 q 677 71 639 22 q 602 -26 550 -26 q 498 -26 462 22 q 426 70 426 168 z m 551 292 q 524 292 506 263 q 488 234 488 163 q 488 91 506 62 q 524 34 553 34 q 578 34 596 63 q 614 92 614 163 q 614 234 596 263 q 578 292 551 292 z"},"m":{"x_min":0,"x_max":683,"ha":683,"o":"m 54 0 l 54 519 l 118 519 l 118 446 q 140 486 173 508 q 207 530 247 530 q 292 530 323 507 q 354 484 367 439 q 393 485 426 508 q 458 530 499 530 q 560 530 595 489 q 630 447 630 356 l 630 0 l 558 0 l 558 327 q 558 382 550 406 q 542 429 524 441 q 506 454 483 454 q 437 454 408 417 q 378 380 378 301 l 378 0 l 306 0 l 306 337 q 306 401 286 428 q 267 454 232 454 q 183 454 154 414 q 125 375 125 269 l 125 0 z"},"#":{"x_min":0,"x_max":456,"ha":456,"o":"m 40 -12 l 75 196 l 7 196 l 7 269 l 87 269 l 117 446 l 7 446 l 7 519 l 128 519 l 164 728 l 224 728 l 188 519 l 315 519 l 350 728 l 410 728 l 375 519 l 445 519 l 445 446 l 363 446 l 333 269 l 445 269 l 445 196 l 321 196 l 287 -12 l 226 -12 l 261 196 l 135 196 l 100 -12 z m 147 269 l 273 269 l 303 446 l 177 446 z"},",":{"x_min":0,"x_max":228,"ha":228,"o":"m 74 0 l 74 100 l 156 100 l 156 0 q 156 -58 139 -91 q 122 -124 89 -142 l 69 -104 q 91 -92 103 -69 q 114 -46 115 0 z"},"n":{"x_min":0,"x_max":456,"ha":456,"o":"m 53 0 l 53 519 l 118 519 l 118 445 q 141 488 175 509 q 209 530 253 530 q 287 530 316 517 q 345 503 363 482 q 381 460 390 425 q 398 391 398 319 l 398 0 l 326 0 l 326 315 q 326 373 316 399 q 307 425 286 440 q 265 454 238 454 q 186 454 155 416 q 125 377 125 283 l 125 0 z"},"h":{"x_min":0,"x_max":456,"ha":456,"o":"m 53 0 l 53 716 l 125 716 l 125 459 q 150 495 182 512 q 214 530 252 530 q 320 530 360 487 q 399 444 399 329 l 399 0 l 327 0 l 327 329 q 327 396 303 425 q 279 455 237 455 q 190 455 157 417 q 125 379 125 284 l 125 0 z"},"z":{"x_min":0,"x_max":410,"ha":410,"o":"m 16 0 l 16 71 l 287 450 q 241 447 206 447 l 32 447 l 32 519 l 380 519 l 380 460 l 149 131 l 105 71 q 153 76 196 76 l 393 76 l 393 0 z"},"B":{"x_min":0,"x_max":547,"ha":547,"o":"m 61 0 l 61 716 l 281 716 q 348 716 387 695 q 426 674 451 630 q 476 586 476 533 q 476 484 454 444 q 433 405 394 381 q 445 362 474 318 q 504 273 504 208 q 504 143 477 94 q 451 44 406 22 q 362 0 284 0 z m 138 415 l 265 415 q 315 415 336 422 q 366 432 383 456 q 399 480 399 522 q 399 561 384 586 q 369 612 344 622 q 320 631 256 631 l 138 631 z m 138 84 l 284 84 q 333 84 355 93 q 389 106 406 135 q 423 164 423 208 q 423 249 407 277 q 390 305 362 318 q 334 331 274 331 l 138 331 z"},"K":{"x_min":0,"x_max":547,"ha":547,"o":"m 61 0 l 61 716 l 138 716 l 138 361 l 430 716 l 535 716 l 289 426 l 546 0 l 443 0 l 234 362 l 138 248 l 138 0 z"},"R":{"x_min":0,"x_max":592,"ha":592,"o":"m 63 0 l 63 716 l 323 716 q 405 716 444 696 q 482 676 507 629 q 532 583 532 521 q 532 440 490 390 q 448 339 367 326 q 400 306 417 286 q 452 245 478 195 l 581 0 l 483 0 l 405 149 q 359 236 336 267 q 313 297 291 307 q 270 318 230 318 l 141 318 l 141 0 z m 141 400 l 308 400 q 362 400 391 413 q 419 426 436 455 q 452 483 452 521 q 452 575 420 606 q 389 637 326 637 l 141 637 z"},"T":{"x_min":0,"x_max":501,"ha":501,"o":"m 214 0 l 214 631 l 21 631 l 21 716 l 486 716 l 486 631 l 292 631 l 292 0 z"},"P":{"x_min":0,"x_max":547,"ha":547,"o":"m 63 0 l 63 716 l 285 716 q 363 716 400 702 q 451 684 481 633 q 511 583 511 510 q 511 413 462 352 q 413 291 292 291 l 141 291 l 141 0 z m 141 375 l 293 375 q 365 375 398 408 q 431 440 431 506 q 431 548 415 579 q 398 609 375 620 q 352 631 292 631 l 141 631 z"},"|":{"x_min":0,"x_max":213,"ha":213,"o":"m 76 -210 l 76 728 l 139 728 l 139 -210 z"},"t":{"x_min":0,"x_max":228,"ha":228,"o":"m 213 79 l 223 1 q 193 -7 169 -7 q 132 -7 109 8 q 86 23 77 49 q 69 75 69 152 l 69 450 l 16 450 l 16 519 l 69 519 l 69 647 l 141 700 l 141 519 l 213 519 l 213 450 l 141 450 l 141 147 q 141 105 147 93 q 156 75 182 75 q 194 75 213 79 z"},"M":{"x_min":0,"x_max":683,"ha":683,"o":"m 61 0 l 61 716 l 178 716 l 317 209 l 345 103 q 355 143 376 218 l 517 716 l 621 716 l 621 0 l 546 0 l 546 599 l 375 0 l 306 0 l 136 609 l 136 0 z"},"g":{"x_min":0,"x_max":456,"ha":456,"o":"m 39 -43 l 109 -56 q 114 -97 139 -117 q 163 -138 207 -138 q 254 -138 282 -115 q 310 -92 320 -47 q 327 -20 327 68 q 303 34 274 17 q 245 0 209 0 q 133 0 83 64 q 25 139 25 263 q 25 347 50 409 q 76 472 117 501 q 158 530 209 530 q 247 530 278 512 q 309 493 333 456 l 333 519 l 399 519 l 399 70 q 399 -49 380 -100 q 360 -151 316 -181 q 271 -210 209 -210 q 126 -210 82 -166 q 38 -122 39 -43 z m 99 269 q 99 167 133 120 q 167 73 215 73 q 264 73 298 119 q 333 165 333 265 q 333 362 297 410 q 262 458 212 458 q 167 458 133 410 q 99 362 99 269 z"},"j":{"x_min":0,"x_max":182,"ha":182,"o":"m 52 614 l 52 716 l 124 716 l 124 614 z m -39 -201 l -25 -126 q -4 -133 8 -133 q 31 -133 42 -115 q 52 -97 52 -26 l 52 519 l 124 519 l 124 -28 q 124 -134 97 -172 q 70 -210 18 -210 q -12 -210 -39 -201 z"},"i":{"x_min":0,"x_max":182,"ha":182,"o":"m 53 615 l 53 716 l 125 716 l 125 615 z m 53 0 l 53 519 l 125 519 l 125 0 z"},"y":{"x_min":0,"x_max":410,"ha":410,"o":"m 51 -200 l 43 -117 q 67 -125 84 -125 q 107 -125 122 -116 q 137 -106 146 -87 q 150 -80 175 -1 l 13 519 l 91 519 l 180 218 q 196 162 210 98 q 223 159 240 216 l 331 519 l 403 519 l 241 -9 q 209 -111 191 -146 q 173 -180 150 -195 q 126 -210 97 -210 q 77 -210 51 -200 z"},"@":{"x_min":0,"x_max":832,"ha":832,"o":"m 464 80 q 436 40 403 19 q 371 -1 343 -1 q 284 -1 244 52 q 196 116 196 218 q 196 300 230 378 q 265 456 312 492 q 360 529 405 529 q 438 529 470 507 q 502 484 525 439 l 538 515 l 610 515 l 552 188 q 541 120 541 112 q 541 98 549 89 q 557 80 568 80 q 590 80 629 114 q 669 148 696 213 q 723 278 723 351 q 723 438 685 508 q 647 579 581 618 q 515 658 438 658 q 345 658 271 608 q 196 558 149 460 q 103 361 103 235 q 103 116 145 32 q 187 -51 264 -95 q 342 -138 449 -138 q 545 -138 618 -98 q 691 -58 729 9 l 802 9 q 778 -50 723 -104 q 668 -158 602 -184 q 535 -210 449 -210 q 322 -210 234 -160 q 146 -109 94 -10 q 43 89 43 228 q 43 376 100 496 q 156 616 241 673 q 327 729 441 729 q 537 729 614 682 q 690 635 736 546 q 782 457 782 349 q 782 203 697 92 q 625 -2 541 -2 q 501 -2 484 18 q 467 38 464 80 z m 270 212 q 270 145 297 108 q 323 71 356 71 q 385 71 419 99 q 453 128 478 188 q 502 249 502 316 q 502 384 475 420 q 447 457 409 457 q 379 457 349 431 q 319 406 294 340 q 270 275 270 212 z"},".":{"x_min":0,"x_max":228,"ha":228,"o":"m 76 0 l 76 100 l 158 100 l 158 0 z"},"p":{"x_min":0,"x_max":456,"ha":456,"o":"m 53 -199 l 53 519 l 119 519 l 119 451 q 143 493 173 512 q 203 530 241 530 q 292 530 332 500 q 373 471 397 410 q 422 349 422 264 q 422 131 366 60 q 311 -12 236 -12 q 203 -12 174 5 q 146 22 125 54 l 125 -199 z m 118 256 q 118 156 151 108 q 185 61 233 61 q 279 61 313 110 q 348 159 348 262 q 348 364 314 413 q 281 461 232 461 q 189 461 153 409 q 118 356 118 256 z"},"X":{"x_min":0,"x_max":547,"ha":547,"o":"m 4 0 l 231 373 l 31 716 l 123 716 l 230 532 q 263 476 277 444 q 296 482 323 526 l 442 716 l 526 716 l 320 378 l 542 0 l 446 0 l 298 255 q 286 277 273 303 q 253 264 245 250 l 97 0 z"},"*":{"x_min":0,"x_max":319,"ha":319,"o":"m 24 584 l 43 654 q 106 626 135 606 q 128 696 127 728 l 186 728 q 185 681 176 607 q 217 632 271 654 l 289 584 q 238 564 189 557 q 214 531 258 465 l 210 423 q 188 460 155 528 q 125 459 103 423 l 56 465 q 100 532 123 557 q 70 569 24 584 z"},"Y":{"x_min":0,"x_max":547,"ha":547,"o":"m 229 0 l 229 303 l 2 716 l 97 716 l 212 500 q 247 436 272 379 q 298 435 336 505 l 450 716 l 541 716 l 306 303 l 306 0 z"},"c":{"x_min":0,"x_max":410,"ha":410,"o":"m 332 190 l 402 179 q 390 86 341 37 q 292 -12 223 -12 q 140 -12 86 57 q 32 125 32 260 q 32 395 86 463 q 141 530 226 530 q 292 530 337 489 q 382 448 395 366 l 325 353 q 315 406 290 432 q 264 458 229 458 q 175 458 140 411 q 105 364 105 261 q 105 155 139 108 q 172 61 225 61 q 266 61 295 92 q 324 124 332 190 z"},"!":{"x_min":0,"x_max":228,"ha":228,"o":"m 94 178 l 72 557 l 72 716 l 162 716 l 162 557 l 141 178 z m 76 0 l 76 100 l 158 100 l 158 0 z"},"/":{"x_min":0,"x_max":228,"ha":228,"o":"m 0 -12 l 170 728 l 228 728 l 58 -12 z"},"[":{"x_min":0,"x_max":228,"ha":228,"o":"m 57 -199 l 57 716 l 216 716 l 216 643 l 129 643 l 129 -126 l 216 -126 l 216 -199 z"},"6":{"x_min":0,"x_max":456,"ha":456,"o":"m 407 541 l 335 534 q 325 589 305 612 q 276 646 235 646 q 172 646 134 568 q 102 501 101 369 q 126 416 164 440 q 201 464 243 464 q 313 464 365 401 q 417 338 417 232 q 417 160 391 102 q 365 43 324 16 q 283 -12 233 -12 q 145 -12 87 68 q 29 148 29 335 q 29 542 88 631 q 147 719 240 719 q 307 719 352 673 q 397 627 407 541 z m 112 232 q 112 154 149 107 q 186 60 234 60 q 276 60 310 104 q 343 149 343 227 q 343 303 310 345 q 277 387 229 387 q 182 387 147 345 q 112 303 112 232 z"},"r":{"x_min":0,"x_max":273,"ha":273,"o":"m 53 0 l 53 519 l 118 519 l 118 440 q 143 495 163 512 q 184 530 210 530 q 246 530 284 502 l 259 420 q 232 439 207 439 q 184 439 165 423 q 146 407 138 378 q 125 328 125 271 l 125 0 z"},"2":{"x_min":0,"x_max":456,"ha":456,"o":"m 413 84 l 413 0 l 24 0 q 23 51 55 115 q 88 178 174 265 q 275 365 307 420 q 338 475 338 522 q 338 577 306 612 q 274 646 227 646 q 177 646 145 609 q 112 572 112 502 l 38 512 q 46 615 96 667 q 147 719 229 719 q 319 719 365 658 q 412 598 412 521 q 412 452 375 389 q 339 327 238 222 q 174 156 155 132 q 136 108 125 84 z"},"{":{"x_min":0,"x_max":274,"ha":274,"o":"m 22 299 q 50 299 69 316 q 89 333 97 365 q 105 397 105 488 q 106 577 109 606 q 114 653 133 685 q 147 708 170 718 q 193 728 232 728 l 254 728 l 254 651 l 242 651 q 201 651 187 634 q 173 616 173 551 q 173 417 167 380 q 159 332 142 305 q 124 279 89 259 q 132 237 152 191 q 173 146 173 39 q 173 -69 176 -87 q 181 -113 194 -123 q 208 -134 242 -134 l 254 -134 l 254 -210 l 232 -210 q 190 -210 169 -200 q 148 -189 135 -169 q 117 -142 111 -105 q 106 -69 105 30 q 105 121 97 153 q 88 186 69 202 q 50 218 22 219 z"},"9":{"x_min":0,"x_max":456,"ha":456,"o":"m 43 166 l 113 173 q 129 60 210 60 q 247 60 276 85 q 306 109 326 172 q 347 235 347 319 l 347 337 q 324 293 286 268 q 248 243 208 243 q 137 243 85 305 q 33 368 33 477 q 33 589 87 654 q 141 719 218 719 q 272 719 320 683 q 367 646 393 576 q 419 506 419 374 q 419 226 391 145 q 363 63 316 25 q 268 -12 209 -12 q 142 -12 97 33 q 52 79 43 166 z m 339 481 q 339 558 305 602 q 271 646 226 646 q 180 646 143 599 q 107 552 107 474 q 107 404 142 362 q 176 320 225 320 q 272 320 306 362 q 339 404 339 481 z"}," ":{"x_min":0,"x_max":228,"ha":228,"o":""},"I":{"x_min":0,"x_max":228,"ha":228,"o":"m 78 0 l 78 716 l 156 716 l 156 0 z"},"H":{"x_min":0,"x_max":592,"ha":592,"o":"m 63 0 l 63 716 l 141 716 l 141 422 l 446 422 l 446 716 l 523 716 l 523 0 l 446 0 l 446 337 l 141 337 l 141 0 z"},"4":{"x_min":0,"x_max":456,"ha":456,"o":"m 264 0 l 264 171 l 9 171 l 9 252 l 277 716 l 336 716 l 336 252 l 416 252 l 416 171 l 336 171 l 336 0 z m 264 252 l 264 575 l 80 252 z"},"~":{"x_min":0,"x_max":479,"ha":479,"o":"m 35 272 l 35 372 q 78 431 146 431 q 169 431 196 422 q 222 414 272 388 q 316 365 341 365 q 365 365 388 379 q 419 399 445 432 l 445 329 q 395 273 334 273 q 311 273 289 279 q 268 286 224 310 q 171 338 140 338 q 115 338 92 325 q 69 312 35 272 z"},"D":{"x_min":0,"x_max":592,"ha":592,"o":"m 62 0 l 62 716 l 264 716 q 339 716 378 703 q 430 686 467 640 q 505 595 526 526 q 547 457 547 362 q 547 240 511 156 q 476 71 420 35 q 364 0 273 0 z m 139 84 l 264 84 q 340 84 379 109 q 418 134 439 188 q 467 261 467 363 q 467 472 437 534 q 408 596 361 617 q 330 631 262 631 l 139 631 z"},"^":{"x_min":0,"x_max":385,"ha":385,"o":"m 96 337 l 22 337 l 164 728 l 222 728 l 363 337 l 291 337 l 192 628 z"},"0":{"x_min":0,"x_max":456,"ha":456,"o":"m 33 353 q 33 533 81 626 q 130 719 225 719 q 309 719 357 644 q 416 553 416 353 q 416 174 367 81 q 319 -12 224 -12 q 140 -12 86 70 q 33 152 33 353 z m 106 353 q 106 179 140 119 q 173 60 226 60 q 275 60 308 120 q 341 180 341 353 q 341 528 308 587 q 274 646 221 646 q 172 646 139 586 q 106 526 106 353 z"},"F":{"x_min":0,"x_max":501,"ha":501,"o":"m 69 0 l 69 716 l 465 716 l 465 631 l 146 631 l 146 410 l 422 410 l 422 325 l 146 325 l 146 0 z"},"`":{"x_min":0,"x_max":273,"ha":273,"o":"m 186 583 l 128 583 l 36 720 l 132 720 z"},"k":{"x_min":0,"x_max":410,"ha":410,"o":"m 55 0 l 55 716 l 126 716 l 126 308 l 297 519 l 391 519 l 228 326 l 407 0 l 318 0 l 177 265 l 126 206 l 126 0 z"},"u":{"x_min":0,"x_max":456,"ha":456,"o":"m 332 0 l 332 76 q 307 32 273 10 q 239 -12 197 -12 q 146 -12 111 15 q 75 42 63 84 q 51 125 51 197 l 51 519 l 123 519 l 123 231 q 123 151 131 124 q 139 97 161 80 q 183 64 210 64 q 262 64 295 106 q 324 143 324 241 l 324 519 l 396 519 l 396 0 z"},"]":{"x_min":0,"x_max":228,"ha":228,"o":"m 177 -199 l 18 -199 l 18 -126 l 104 -126 l 104 643 l 18 643 l 18 716 l 177 716 z"},"U":{"x_min":0,"x_max":592,"ha":592,"o":"m 447 716 l 525 716 l 525 302 q 525 198 505 132 q 484 65 431 26 q 377 -12 295 -12 q 179 -12 121 57 q 63 126 63 302 l 63 716 l 141 716 l 141 303 q 141 206 156 162 q 171 119 205 96 q 240 73 289 73 q 372 73 409 120 q 447 167 447 303 z"},"o":{"x_min":0,"x_max":456,"ha":456,"o":"m 26 259 q 26 394 82 462 q 139 530 225 530 q 310 530 367 462 q 424 394 424 265 q 424 125 368 57 q 312 -12 225 -12 q 140 -12 83 57 q 26 125 26 259 z m 100 259 q 100 159 136 110 q 173 61 227 61 q 278 61 314 110 q 351 160 351 259 q 351 359 314 408 q 277 458 223 458 q 172 458 136 408 q 100 359 100 259 z"},"N":{"x_min":0,"x_max":592,"ha":592,"o":"m 61 0 l 61 716 l 141 716 l 449 154 l 449 716 l 523 716 l 523 0 l 444 0 l 136 562 l 136 0 z"},"+":{"x_min":0,"x_max":479,"ha":479,"o":"m 205 116 l 205 312 l 45 312 l 45 394 l 205 394 l 205 589 l 273 589 l 273 394 l 433 394 l 433 312 l 273 312 l 273 116 z"},"G":{"x_min":0,"x_max":638,"ha":638,"o":"m 340 281 l 340 365 l 588 365 l 588 100 q 531 44 470 16 q 409 -12 345 -12 q 259 -12 191 31 q 124 74 85 156 q 45 239 45 354 q 45 472 85 559 q 125 646 188 687 q 252 728 340 728 q 404 728 453 704 q 501 680 532 636 q 563 592 579 516 l 509 492 q 495 553 474 583 q 452 613 417 630 q 382 647 338 647 q 274 647 228 616 q 182 585 154 520 q 125 454 125 360 q 125 216 186 145 q 246 73 342 73 q 388 73 436 95 q 484 117 512 147 l 512 281 z"},"q":{"x_min":0,"x_max":456,"ha":456,"o":"m 324 -199 l 324 55 q 307 25 276 7 q 246 -12 215 -12 q 139 -12 83 61 q 27 133 27 264 q 27 378 74 454 q 121 530 207 530 q 247 530 277 510 q 308 490 331 449 l 331 519 l 396 519 l 396 -199 z m 101 261 q 101 160 136 110 q 171 61 220 61 q 264 61 297 108 q 331 156 331 250 q 331 357 296 409 q 260 461 211 461 q 167 461 134 412 q 101 364 101 261 z"},"d":{"x_min":0,"x_max":456,"ha":456,"o":"m 329 0 l 329 65 q 309 28 278 8 q 248 -12 212 -12 q 137 -12 82 59 q 27 130 27 259 q 27 348 51 409 q 76 471 116 500 q 157 530 207 530 q 243 530 273 511 q 304 493 324 459 l 324 716 l 396 716 l 396 0 z m 101 259 q 101 158 135 109 q 170 61 217 61 q 263 61 296 107 q 330 154 330 249 q 330 358 296 408 q 263 458 211 458 q 166 458 133 410 q 101 362 101 259 z"},"1":{"x_min":0,"x_max":456,"ha":456,"o":"m 304 0 l 232 0 l 232 560 q 207 531 165 500 q 123 470 88 454 l 88 539 q 147 573 193 623 q 239 672 257 719 l 304 719 z"},"5":{"x_min":0,"x_max":456,"ha":456,"o":"m 33 188 l 108 195 q 117 127 148 94 q 179 60 220 60 q 271 60 309 107 q 346 154 346 236 q 346 312 310 355 q 274 397 220 397 q 187 397 158 379 q 130 360 113 328 l 45 338 l 103 706 l 394 706 l 394 622 l 160 622 l 128 430 q 181 475 239 475 q 313 475 367 412 q 422 349 422 243 q 422 138 367 63 q 313 -12 221 -12 q 145 -12 93 41 q 40 94 33 188 z"}}}
